<svg id="visual" viewBox="0 0 900 600" width="900" height="600" xmlns="http://www.w3.org/2000/svg" xmlns:xlink="http://www.w3.org/1999/xlink" version="1.1"><rect x="0" y="0" width="900" height="600" fill="#f5f5f5"></rect><defs><linearGradient id="grad1_0" x1="33.3%" y1="0%" x2="100%" y2="100%"><stop offset="20%" stop-color="#1d0021" stop-opacity="1"></stop><stop offset="80%" stop-color="#1d0021" stop-opacity="1"></stop></linearGradient></defs><defs><linearGradient id="grad1_1" x1="33.3%" y1="0%" x2="100%" y2="100%"><stop offset="20%" stop-color="#1d0021" stop-opacity="1"></stop><stop offset="80%" stop-color="#412e46" stop-opacity="1"></stop></linearGradient></defs><defs><linearGradient id="grad1_2" x1="33.3%" y1="0%" x2="100%" y2="100%"><stop offset="20%" stop-color="#6b5a6e" stop-opacity="1"></stop><stop offset="80%" stop-color="#412e46" stop-opacity="1"></stop></linearGradient></defs><defs><linearGradient id="grad1_3" x1="33.3%" y1="0%" x2="100%" y2="100%"><stop offset="20%" stop-color="#6b5a6e" stop-opacity="1"></stop><stop offset="80%" stop-color="#978b99" stop-opacity="1"></stop></linearGradient></defs><defs><linearGradient id="grad1_4" x1="33.3%" y1="0%" x2="100%" y2="100%"><stop offset="20%" stop-color="#c5bfc6" stop-opacity="1"></stop><stop offset="80%" stop-color="#978b99" stop-opacity="1"></stop></linearGradient></defs><defs><linearGradient id="grad1_5" x1="33.3%" y1="0%" x2="100%" y2="100%"><stop offset="20%" stop-color="#c5bfc6" stop-opacity="1"></stop><stop offset="80%" stop-color="#f5f5f5" stop-opacity="1"></stop></linearGradient></defs><defs><linearGradient id="grad2_0" x1="0%" y1="0%" x2="66.7%" y2="100%"><stop offset="20%" stop-color="#1d0021" stop-opacity="1"></stop><stop offset="80%" stop-color="#1d0021" stop-opacity="1"></stop></linearGradient></defs><defs><linearGradient id="grad2_1" x1="0%" y1="0%" x2="66.7%" y2="100%"><stop offset="20%" stop-color="#412e46" stop-opacity="1"></stop><stop offset="80%" stop-color="#1d0021" stop-opacity="1"></stop></linearGradient></defs><defs><linearGradient id="grad2_2" x1="0%" y1="0%" x2="66.7%" y2="100%"><stop offset="20%" stop-color="#412e46" stop-opacity="1"></stop><stop offset="80%" stop-color="#6b5a6e" stop-opacity="1"></stop></linearGradient></defs><defs><linearGradient id="grad2_3" x1="0%" y1="0%" x2="66.7%" y2="100%"><stop offset="20%" stop-color="#978b99" stop-opacity="1"></stop><stop offset="80%" stop-color="#6b5a6e" stop-opacity="1"></stop></linearGradient></defs><defs><linearGradient id="grad2_4" x1="0%" y1="0%" x2="66.7%" y2="100%"><stop offset="20%" stop-color="#978b99" stop-opacity="1"></stop><stop offset="80%" stop-color="#c5bfc6" stop-opacity="1"></stop></linearGradient></defs><defs><linearGradient id="grad2_5" x1="0%" y1="0%" x2="66.7%" y2="100%"><stop offset="20%" stop-color="#f5f5f5" stop-opacity="1"></stop><stop offset="80%" stop-color="#c5bfc6" stop-opacity="1"></stop></linearGradient></defs><g transform="translate(900, 0)"><path d="M0 540.8C-69 528.7 -137.9 516.6 -204 492.4C-270 468.3 -333.1 432.1 -382.4 382.4C-431.8 332.8 -467.4 269.6 -491.5 203.6C-515.6 137.6 -528.2 68.8 -540.8 0L0 0Z" fill="#dddadd"></path><path d="M0 450.7C-57.5 440.6 -115 430.5 -170 410.4C-225 390.2 -277.6 360.1 -318.7 318.7C-359.8 277.3 -389.5 224.6 -409.6 169.7C-429.7 114.7 -440.2 57.3 -450.7 0L0 0Z" fill="#aea4af"></path><path d="M0 360.6C-46 352.5 -92 344.4 -136 328.3C-180 312.2 -222.1 288.1 -255 255C-287.9 221.8 -311.6 179.7 -327.7 135.7C-343.7 91.7 -352.1 45.9 -360.6 0L0 0Z" fill="#817283"></path><path d="M0 270.4C-34.5 264.4 -69 258.3 -102 246.2C-135 234.1 -166.5 216.1 -191.2 191.2C-215.9 166.4 -233.7 134.8 -245.8 101.8C-257.8 68.8 -264.1 34.4 -270.4 0L0 0Z" fill="#564459"></path><path d="M0 180.3C-23 176.2 -46 172.2 -68 164.1C-90 156.1 -111 144 -127.5 127.5C-143.9 110.9 -155.8 89.9 -163.8 67.9C-171.9 45.9 -176.1 22.9 -180.3 0L0 0Z" fill="#2e1933"></path><path d="M0 90.1C-11.5 88.1 -23 86.1 -34 82.1C-45 78 -55.5 72 -63.7 63.7C-72 55.5 -77.9 44.9 -81.9 33.9C-85.9 22.9 -88 11.5 -90.1 0L0 0Z" fill="#1d0021"></path></g><g transform="translate(0, 600)"><path d="M0 -540.8C71 -533.6 142 -526.3 207 -499.7C272 -473 331 -427 372.6 -372.6C414.3 -318.3 438.6 -255.6 463.8 -192.1C488.9 -128.6 514.9 -64.3 540.8 0L0 0Z" fill="#dddadd"></path><path d="M0 -450.7C59.2 -444.6 118.3 -438.6 172.5 -416.4C226.6 -394.2 275.8 -355.8 310.5 -310.5C345.3 -265.2 365.5 -213 386.5 -160.1C407.4 -107.2 429.1 -53.6 450.7 0L0 0Z" fill="#aea4af"></path><path d="M0 -360.6C47.3 -355.7 94.6 -350.9 138 -333.1C181.3 -315.3 220.7 -284.7 248.4 -248.4C276.2 -212.2 292.4 -170.4 309.2 -128.1C326 -85.7 343.3 -42.9 360.6 0L0 0Z" fill="#817283"></path><path d="M0 -270.4C35.5 -266.8 71 -263.2 103.5 -249.8C136 -236.5 165.5 -213.5 186.3 -186.3C207.2 -159.1 219.3 -127.8 231.9 -96.1C244.5 -64.3 257.4 -32.2 270.4 0L0 0Z" fill="#564459"></path><path d="M0 -180.3C23.7 -177.9 47.3 -175.4 69 -166.6C90.7 -157.7 110.3 -142.3 124.2 -124.2C138.1 -106.1 146.2 -85.2 154.6 -64C163 -42.9 171.6 -21.4 180.3 0L0 0Z" fill="#2e1933"></path><path d="M0 -90.1C11.8 -88.9 23.7 -87.7 34.5 -83.3C45.3 -78.8 55.2 -71.2 62.1 -62.1C69.1 -53 73.1 -42.6 77.3 -32C81.5 -21.4 85.8 -10.7 90.1 0L0 0Z" fill="#1d0021"></path></g></svg>